<?xml version="1.0" encoding="iso-8859-1"?>
<!-- Uploaded to: SVG Repo, www.svgrepo.com, Generator: SVG Repo Mixer Tools -->
<svg height="800px" width="800px" version="1.1" id="Layer_1" xmlns="http://www.w3.org/2000/svg" xmlns:xlink="http://www.w3.org/1999/xlink" 
	 viewBox="0 0 512 512" xml:space="preserve">
<path style="fill:#CCCCCC;" d="M102.003,231.361V122.972c0-61.552,49.343-112.418,110.894-112.771
	c61.804-0.355,112.197,49.82,112.197,111.544v109.616h-40.655V122.648c0-39.028-31.165-71.413-70.191-71.791
	c-39.409-0.382-71.589,31.564-71.589,70.887V231.36h-40.656V231.361z"/>
<path style="fill:#FF931E;" d="M346.371,320.167c1.778,0,3.542,0.057,5.294,0.158l0.62-1.09v-87.874H74.812v230.113h196.062
	c-9.675-14.438-15.321-31.804-15.321-50.49C255.554,360.827,296.213,320.167,346.371,320.167z"/>
<path style="fill:#7AC943;" d="M351.665,320.325c-1.752-0.101-3.517-0.158-5.294-0.158c-50.157,0-90.817,40.66-90.817,90.817
	c0,18.686,5.646,36.051,15.321,50.49c16.295,24.317,44.024,40.327,75.496,40.327c50.157,0,90.817-40.66,90.817-90.817
	C437.188,362.605,399.357,323.067,351.665,320.325z"/>
<path d="M213.549,290.357c-5.632,0-10.199,4.566-10.199,10.199v8.996c0,5.633,4.567,10.199,10.199,10.199
	s10.199-4.566,10.199-10.199v-8.996C223.748,294.923,219.181,290.357,213.549,290.357z"/>
<path d="M213.549,333.058c-5.632,0-10.199,4.566-10.199,10.199v50.806c0,5.633,4.567,10.199,10.199,10.199
	s10.199-4.566,10.199-10.199v-50.806C223.748,337.624,219.181,333.058,213.549,333.058z"/>
<path d="M362.485,311.259v-79.899c0-5.633-4.567-10.199-10.199-10.199h-16.992v-99.417c0-32.604-12.766-63.252-35.945-86.299
	C276.342,12.572,245.901,0,213.557,0c-0.239,0-0.479,0.001-0.718,0.002C146.1,0.385,91.804,55.549,91.804,122.972v98.189H74.813
	c-5.632,0-10.199,4.566-10.199,10.199v230.113c0,5.633,4.567,10.199,10.199,10.199h190.858C284.122,496.147,313.429,512,346.37,512
	c55.7,0,101.016-45.316,101.016-101.016C447.386,360.768,410.553,318.998,362.485,311.259z M112.202,122.972
	c0-56.239,45.198-102.253,100.754-102.571c0.2-0.002,0.397-0.002,0.597-0.002c26.917,0,52.259,10.468,71.414,29.513
	c19.301,19.189,29.93,44.7,29.93,71.834v99.417H294.64v-98.512c0-44.781-36.018-81.561-80.292-81.989
	c-21.798-0.207-42.324,8.131-57.833,23.491c-15.512,15.363-24.055,35.817-24.055,57.595v99.417h-20.257v-98.192H112.202z
	 M152.857,221.162v-99.417c0-16.292,6.396-31.599,18.01-43.101c11.468-11.358,26.603-17.591,42.679-17.591
	c0.2,0,0.403,0.001,0.604,0.003c33.134,0.32,60.091,27.951,60.091,61.592v98.512H152.857V221.162z M85.012,451.275V241.56h16.991
	h40.655h141.781h40.655h16.992v68.505c-53.72,2.253-96.732,46.654-96.732,100.919c0,14.315,3,27.941,8.393,40.291H85.012z
	 M346.37,491.602c-44.452,0-80.618-36.164-80.618-80.618s36.165-80.618,80.618-80.618s80.618,36.164,80.618,80.618
	S390.822,491.602,346.37,491.602z"/>
<path d="M375.607,377.298l-51.434,51.434l-13.883-13.884c-3.984-3.983-10.44-3.983-14.425,0c-3.983,3.983-3.983,10.441,0,14.425
	l21.096,21.096c1.992,1.992,4.602,2.987,7.212,2.987c2.61,0,5.22-0.995,7.212-2.987l58.645-58.645
	c3.983-3.983,3.983-10.441,0-14.425C386.047,373.314,379.591,373.314,375.607,377.298z"/>
</svg>